<svg width="100" height="100" viewBox="0 0 100 100" fill="none" xmlns="http://www.w3.org/2000/svg">
<g clip-path="url(#clip0_226_136)">
<path d="M48.8398 16.168H60.5586V67.3887C60.5586 72.1738 59.5169 76.2266 57.4336 79.5469C55.3828 82.8997 52.502 85.4388 48.791 87.1641C45.0801 88.9219 40.7669 89.8008 35.8516 89.8008C33.7357 89.8008 31.4408 89.5078 28.9668 88.9219C26.5254 88.3359 24.1654 87.4082 21.8867 86.1387C19.6406 84.9017 17.7689 83.2904 16.2715 81.3047L22.082 73.6875C23.8398 75.7383 25.8255 77.2845 28.0391 78.3262C30.2526 79.4004 32.6452 79.9375 35.2168 79.9375C37.821 79.9375 40.0345 79.4492 41.8574 78.4727C43.7129 77.5286 45.1289 76.1289 46.1055 74.2734C47.1146 72.4505 47.6191 70.2044 47.6191 67.5352V28.2285L48.8398 16.168ZM13.1465 43.2188V42.1934C13.1465 38.1569 13.6348 34.4948 14.6113 31.207C15.5879 27.8867 16.9876 25.0384 18.8105 22.6621C20.666 20.2858 22.8958 18.4466 25.5 17.1445C28.1367 15.8424 31.099 15.1914 34.3867 15.1914C37.8698 15.1914 40.7995 15.8262 43.1758 17.0957C45.5846 18.3652 47.5703 20.1719 49.1328 22.5156C50.7279 24.8594 51.9648 27.6426 52.8438 30.8652C53.7552 34.0553 54.4551 37.571 54.9434 41.4121V44.1953C54.4876 47.9388 53.7552 51.373 52.7461 54.498C51.7695 57.623 50.4674 60.3574 48.8398 62.7012C47.2122 65.0124 45.194 66.8027 42.7852 68.0723C40.3763 69.3418 37.5443 69.9766 34.2891 69.9766C31.0339 69.9766 28.1042 69.3092 25.5 67.9746C22.8958 66.64 20.666 64.7682 18.8105 62.3594C16.9876 59.9505 15.5879 57.1185 14.6113 53.8633C13.6348 50.6081 13.1465 47.0599 13.1465 43.2188ZM26.0371 42.1934V43.2188C26.0371 45.4974 26.265 47.6296 26.7207 49.6152C27.1764 51.6009 27.8763 53.3587 28.8203 54.8887C29.7643 56.3861 30.9525 57.5579 32.3848 58.4043C33.8171 59.2507 35.526 59.6738 37.5117 59.6738C40.181 59.6738 42.362 59.1204 44.0547 58.0137C45.7799 56.8743 47.082 55.3281 47.9609 53.375C48.8724 51.3893 49.4583 49.1595 49.7188 46.6855V39.0195C49.556 37.0664 49.1979 35.2598 48.6445 33.5996C48.1237 31.9395 47.3913 30.5072 46.4473 29.3027C45.5033 28.0983 44.2988 27.1543 42.834 26.4707C41.3691 25.7871 39.6276 25.4453 37.6094 25.4453C35.6562 25.4453 33.9473 25.8848 32.4824 26.7637C31.0176 27.61 29.8132 28.7982 28.8691 30.3281C27.9251 31.8581 27.209 33.6322 26.7207 35.6504C26.265 37.6686 26.0371 39.8496 26.0371 42.1934ZM71.6914 21.7344C71.6914 19.7812 72.3587 18.1374 73.6934 16.8027C75.028 15.4681 76.8346 14.8008 79.1133 14.8008C81.3919 14.8008 83.1986 15.4681 84.5332 16.8027C85.8678 18.1374 86.5352 19.7812 86.5352 21.7344C86.5352 23.6549 85.8678 25.2826 84.5332 26.6172C83.1986 27.9193 81.3919 28.5703 79.1133 28.5703C76.8346 28.5703 75.028 27.9193 73.6934 26.6172C72.3587 25.2826 71.6914 23.6549 71.6914 21.7344ZM85.2656 57.3789L85.168 66.3145C85.168 69.7975 84.3053 73.3294 82.5801 76.9102C80.8548 80.4909 78.625 83.4531 75.8906 85.7969L69.0547 82.0371C69.9336 80.5723 70.7474 79.0911 71.4961 77.5938C72.2773 76.0964 72.8958 74.4688 73.3516 72.7109C73.8398 70.9857 74.084 69.0488 74.084 66.9004V57.3789H85.2656Z" fill="#51B215"/>
</g>
<defs>
<clipPath id="clip0_226_136">
<rect width="100" height="100" rx="15" fill="white"/>
</clipPath>
</defs>
</svg>
